<svg width="20" height="20" viewBox="0 0 20 20" fill="none" xmlns="http://www.w3.org/2000/svg">
<path d="M20 9.18921V10.8285C19.9902 10.886 19.9781 10.9431 19.9715 11.0006C19.9101 11.543 19.8209 12.0807 19.6759 12.6074C19.1476 14.5244 18.1463 16.1508 16.6632 17.4757C15.3569 18.6426 13.8469 19.413 12.1347 19.7896C11.703 19.8846 11.264 19.928 10.8292 20H9.19011C8.86285 19.9515 8.53402 19.9132 8.20871 19.853C6.20172 19.4826 4.4614 18.582 3.00963 17.1531C1.4124 15.5814 0.441167 13.6778 0.109992 11.453C-0.0909799 10.1027 -0.0166905 8.76647 0.334034 7.45213C0.843112 5.54416 1.8249 3.91149 3.30209 2.59636C5.62227 0.530404 8.34243 -0.314281 11.4149 0.104151C13.9904 0.45493 16.1065 1.68598 17.7627 3.69172C18.7523 4.88992 19.4108 6.25432 19.765 7.7681C19.8749 8.23737 19.9218 8.71564 20 9.18921ZM4.04029 12.3544C4.71594 12.3544 5.39197 12.3517 6.06761 12.3564C6.2201 12.3576 6.27132 12.3063 6.26155 12.1499C6.22831 11.6056 6.2025 11.0604 6.18335 10.5153C6.15285 9.64401 6.20993 8.77468 6.26076 7.90615C6.2721 7.71453 6.21697 7.65861 6.02812 7.65978C4.70264 7.66604 3.37716 7.66565 2.05129 7.66017C1.87182 7.65939 1.78698 7.71609 1.74162 7.89793C1.39051 9.30652 1.39051 10.7116 1.74162 12.1202C1.78698 12.3024 1.87222 12.3595 2.05168 12.3576C2.71442 12.3501 3.37716 12.3544 4.0399 12.3544H4.04029ZM15.9876 12.3544C16.657 12.3544 17.326 12.3517 17.9954 12.3568C18.1494 12.3579 18.2307 12.3063 18.2702 12.1503C18.6319 10.7233 18.6327 9.29831 18.271 7.87134C18.2319 7.71766 18.1561 7.66095 17.9993 7.66134C16.6542 7.66525 15.3092 7.66525 13.9642 7.66134C13.8054 7.66095 13.7476 7.70749 13.7581 7.87564C13.7925 8.42664 13.818 8.97803 13.8367 9.52982C13.866 10.3815 13.8054 11.2309 13.7648 12.0807C13.7519 12.354 13.7538 12.3548 14.0381 12.3552C14.6879 12.3556 15.3378 12.3552 15.9876 12.3552V12.3544ZM9.99009 12.3544C10.6657 12.3544 11.3414 12.3513 12.0174 12.3568C12.1863 12.3583 12.27 12.3067 12.2708 12.1253C12.2719 11.9243 12.2974 11.7237 12.3083 11.523C12.3744 10.3025 12.3709 9.08245 12.2684 7.86352C12.2555 7.71101 12.1883 7.66056 12.0467 7.66291C11.7867 7.66682 11.5271 7.6633 11.2671 7.6633C10.1821 7.6633 9.09705 7.66565 8.01204 7.66095C7.83609 7.66017 7.74655 7.71062 7.74772 7.90224C7.7489 8.09659 7.7227 8.29056 7.71214 8.4853C7.64567 9.69289 7.65115 10.8997 7.74577 12.1061C7.76102 12.3016 7.83374 12.3603 8.02181 12.3579C8.67791 12.3497 9.33439 12.3548 9.99048 12.3548L9.99009 12.3544ZM9.99596 6.17298C10.62 6.17298 11.244 6.17298 11.868 6.17298C11.9834 6.17298 12.0761 6.16398 12.0487 6.00169C11.8579 4.87701 11.5955 3.77227 11.1134 2.73206C10.9246 2.32458 10.708 1.92883 10.3541 1.63397C10.1109 1.4314 9.91619 1.43179 9.67182 1.62928C9.59636 1.69028 9.52715 1.75989 9.46303 1.83302C9.21592 2.11419 9.03801 2.43916 8.88474 2.77742C8.42767 3.78518 8.16531 4.84925 7.98545 5.93639C7.9487 6.1589 7.95886 6.1722 8.18212 6.17298C8.7866 6.17454 9.39148 6.17337 9.99596 6.17298ZM10.0092 13.8444C9.39147 13.8444 8.77409 13.8451 8.15632 13.844C8.02924 13.844 7.94322 13.8584 7.97216 14.0297C8.13286 14.9804 8.34986 15.9158 8.70332 16.8148C8.91563 17.3545 9.15297 17.8852 9.57407 18.3016C9.89273 18.6172 10.1222 18.611 10.4468 18.3028C10.489 18.2625 10.5277 18.2183 10.5656 18.1742C10.8096 17.8902 10.9871 17.5657 11.14 17.227C11.5904 16.2306 11.8501 15.1794 12.0295 14.1056C12.0729 13.8463 12.0702 13.8451 11.8035 13.8447C11.2053 13.844 10.6075 13.8447 10.0092 13.8447V13.8444ZM7.71605 1.80564C7.44588 1.85022 7.22926 1.93704 7.01304 2.02033C5.03694 2.78368 3.53591 4.09411 2.50915 5.94695C2.39498 6.15264 2.40944 6.17259 2.64443 6.17298C3.83424 6.17376 5.02404 6.17024 6.21384 6.1765C6.39605 6.17767 6.46526 6.1108 6.48989 5.93521C6.53642 5.60751 6.59624 5.28097 6.66466 4.95718C6.89105 3.87981 7.19055 2.82591 7.71644 1.80564H7.71605ZM12.3079 1.799C12.401 1.99883 12.4831 2.16503 12.557 2.33553C13.0543 3.48289 13.3351 4.6897 13.5274 5.91918C13.5583 6.11549 13.6326 6.17845 13.8285 6.17728C14.9859 6.16985 16.1428 6.17376 17.3002 6.17376C17.6325 6.17376 17.638 6.16828 17.473 5.87577C16.5338 4.21417 15.1958 2.98781 13.4555 2.20374C13.0958 2.04184 12.7282 1.89989 12.3083 1.79939L12.3079 1.799ZM7.71527 18.2191C7.61987 18.0181 7.54089 17.8621 7.4709 17.7021C6.96925 16.5497 6.68617 15.3366 6.49223 14.1005C6.46174 13.9058 6.39018 13.8393 6.19273 13.8404C5.01583 13.8479 3.83932 13.8444 2.66242 13.8444C2.62332 13.8444 2.58422 13.8451 2.54551 13.8459C2.44268 13.8479 2.42039 13.8975 2.46418 13.9851C2.49038 14.0375 2.51658 14.0899 2.54512 14.1408C3.48821 15.8083 4.83206 17.0377 6.58021 17.8214C6.93445 17.9802 7.29651 18.1194 7.71488 18.2191H7.71527ZM12.3197 18.1863C12.3838 18.2164 12.4268 18.1933 12.4682 18.1804C14.6993 17.4769 16.3825 16.1015 17.518 14.0567C17.6239 13.8663 17.6075 13.8447 17.3795 13.8444C16.1897 13.8436 14.9999 13.8475 13.8101 13.8404C13.6162 13.8393 13.556 13.9167 13.5282 14.0974C13.3632 15.1654 13.1216 16.215 12.7427 17.2301C12.6207 17.5571 12.4717 17.8719 12.3189 18.1859L12.3197 18.1863Z" fill="white"/>
</svg>
