<svg xmlns="http://www.w3.org/2000/svg" width="119.041" height="24" viewBox="0 0 119.041 24"><g id="eventtia-logo" transform="translate(-241.421 -303.281)"><path id="Path_203" data-name="Path 203" d="M281.778,313.3l-4.813,12.533a.37.37,0,0,1-.353.241.356.356,0,0,1-.348-.241L271.417,313.3a1.05,1.05,0,0,0-1-.684h-1.637a1.071,1.071,0,0,0-.982,1.491l6.4,15.1a1.049,1.049,0,0,0,.983.652h2.862a1.049,1.049,0,0,0,.983-.654l6.369-15.1a1.07,1.07,0,0,0-.983-1.488h-1.641a1.049,1.049,0,0,0-1,.685Z" transform="translate(-8.584 -3.025)" fill="#eeeef0"></path><path id="Path_204" data-name="Path 204" d="M340.3,328.7c.006-.32.014-.737.022-1.09.08-3.51.189-8.315-.61-10.573a7.589,7.589,0,0,0-1.733-2.839,6.376,6.376,0,0,0-3.346-1.785,7.359,7.359,0,0,0-3.865.329,8.835,8.835,0,0,0-3.258,2.085l-.547.546-.092-.769-.137-1.153a1.065,1.065,0,0,0-1.06-.944h-1.215a1.073,1.073,0,0,0-1.068,1.071v15.1a1.072,1.072,0,0,0,1.068,1.071h1.464a1.067,1.067,0,0,0,1.067-1.1c0-.175-.007-.357-.013-.545-.071-3.034-.178-7.683.39-9.258a4.923,4.923,0,0,1,2.99-3.1,4.643,4.643,0,0,1,4.484.8,5.194,5.194,0,0,1,1.781,4.139v7.987a1.071,1.071,0,0,0,1.067,1.071h1.542A1.07,1.07,0,0,0,340.3,328.7Z" transform="translate(-26.762 -2.92)" fill="#eeeef0"></path><path id="Path_205" data-name="Path 205" d="M351.169,306.541v4.753c0,2.213,0,3.883,0,10.164a7.665,7.665,0,0,0,.5,2.855,4.984,4.984,0,0,0,2.108,2.5,6.343,6.343,0,0,0,3.25.817,9.31,9.31,0,0,0,2.26-.292,1.031,1.031,0,0,0,.674-.521,1.043,1.043,0,0,0,.08-.851l-.329-1.013a1.062,1.062,0,0,0-1.228-.717,4.5,4.5,0,0,1-.882.092,3.151,3.151,0,0,1-1.45-.327,2.355,2.355,0,0,1-1.051-1.078,3.314,3.314,0,0,1-.306-1.469v-7.107a1.071,1.071,0,0,1,1.068-1.071h2.926a1.072,1.072,0,0,0,1.067-1.072V311.3a1.072,1.072,0,0,0-1.067-1.071H355.9a1.011,1.011,0,0,1-1.068-1v-2.91a1.071,1.071,0,0,0-1.222-1.061l-1.524.224a1.065,1.065,0,0,0-.913,1.059Z" transform="translate(-35.832 -0.637)" fill="#eeeef0"></path><path id="Path_206" data-name="Path 206" d="M366.792,306.541v4.753c0,2.213,0,3.883,0,10.164a7.681,7.681,0,0,0,.5,2.855,4.988,4.988,0,0,0,2.108,2.5,6.345,6.345,0,0,0,3.251.817,9.318,9.318,0,0,0,2.26-.292,1.072,1.072,0,0,0,.754-1.372l-.329-1.013a1.062,1.062,0,0,0-1.227-.717,4.518,4.518,0,0,1-.882.092,3.151,3.151,0,0,1-1.45-.327,2.355,2.355,0,0,1-1.051-1.078,3.314,3.314,0,0,1-.306-1.469v-7.107a1.07,1.07,0,0,1,1.067-1.071h2.926a1.071,1.071,0,0,0,1.067-1.072V311.3a1.071,1.071,0,0,0-1.067-1.071h-2.89a1.011,1.011,0,0,1-1.068-1v-2.91a1.07,1.07,0,0,0-1.222-1.061l-1.523.224a1.065,1.065,0,0,0-.913,1.059Z" transform="translate(-40.933 -0.637)" fill="#eeeef0"></path><path id="Path_207" data-name="Path 207" d="M382.188,305.459a2.05,2.05,0,0,0,1.315,1.964,2.539,2.539,0,0,0,.935.174h0a2.5,2.5,0,0,0,.928-.181h0a2.173,2.173,0,0,0,0-3.954,2.468,2.468,0,0,0-.928-.181,2.543,2.543,0,0,0-.938.173,2.048,2.048,0,0,0-1.315,1.966c0,.013,0,.026,0,.039Z" transform="translate(-45.96 0)" fill="#eeeef0"></path><path id="Path_208" data-name="Path 208" d="M386.435,328.786v-15.1a1.071,1.071,0,0,0-1.066-1.071h-1.523a1.07,1.07,0,0,0-1.066,1.071v15.1a1.07,1.07,0,0,0,1.066,1.071h1.523a1.07,1.07,0,0,0,1.066-1.071Z" transform="translate(-46.153 -3.025)" fill="#eeeef0"></path><path id="Path_209" data-name="Path 209" d="M409.171,320.873V328.5a1.07,1.07,0,0,1-1.066,1.071h-1.383a1.065,1.065,0,0,1-1.062-.981l-.106-1.422c-2.485,2.248-5.148,3.4-8.5,2.6a8.333,8.333,0,0,1-3.827-2.063,10.2,10.2,0,0,1,0-13.65,8.333,8.333,0,0,1,3.827-2.063c3.351-.806,6.014.346,8.5,2.594l.106-1.271a1.065,1.065,0,0,1,1.062-.982H408.1a1.07,1.07,0,0,1,1.066,1.07v7.475Zm-14.9,0v.005a6.494,6.494,0,0,0,.446,2.364,5.3,5.3,0,0,0,5.187,3.426,5.188,5.188,0,0,0,5.047-3.41,6.61,6.61,0,0,0,.437-2.367v-.034a6.609,6.609,0,0,0-.437-2.367,5.187,5.187,0,0,0-5.047-3.41,5.293,5.293,0,0,0-5.187,3.425,6.494,6.494,0,0,0-.446,2.364v0Z" transform="translate(-48.709 -2.737)" fill="#eeeef0"></path><path id="Path_210" data-name="Path 210" d="M259.309,321.065a10.6,10.6,0,0,0-1.214-5.34,7.56,7.56,0,0,0-3.835-3.345,9.785,9.785,0,0,0-5-.55,9.326,9.326,0,0,0-5.29,2.513,9.03,9.03,0,0,0-2.544,6.051,9.824,9.824,0,0,0,1.115,4.932,8.642,8.642,0,0,0,3.583,3.627,10.622,10.622,0,0,0,7.5.708h0a10.906,10.906,0,0,0,2.65-.97c.222-.118.44-.244.651-.379a1.2,1.2,0,0,0,.592-.988,1.032,1.032,0,0,0-.319-.743l-.8-.8a1.044,1.044,0,0,0-1.3-.122,7.33,7.33,0,0,1-2.9,1,8.125,8.125,0,0,1-3.076-.178,5.623,5.623,0,0,1-2.58-1.411h0a4.229,4.229,0,0,1-.929-1.393,1.305,1.305,0,0,1,.024-.992,1.045,1.045,0,0,1,.936-.556h11.667a1.07,1.07,0,0,0,1.068-1.063Zm-13.4-3.473a5.405,5.405,0,0,1,2.528-2.128,6.527,6.527,0,0,1,2.786-.516,5.275,5.275,0,0,1,2.629.775h0a4.056,4.056,0,0,1,1.626,1.966,3.212,3.212,0,0,1,.208,1.53H245.574a2.431,2.431,0,0,1,.331-1.628Z" transform="translate(0 -2.736)" fill="#eeeef0"></path><path id="Path_211" data-name="Path 211" d="M312.019,321.065a10.6,10.6,0,0,0-1.214-5.34,7.559,7.559,0,0,0-3.836-3.345,9.782,9.782,0,0,0-5-.55,9.33,9.33,0,0,0-5.291,2.513,9.036,9.036,0,0,0-2.544,6.051,9.831,9.831,0,0,0,1.116,4.932,8.643,8.643,0,0,0,3.583,3.627,10.621,10.621,0,0,0,7.5.708h0a10.9,10.9,0,0,0,2.65-.97q.333-.177.651-.379a1.2,1.2,0,0,0,.592-.988,1.033,1.033,0,0,0-.319-.743l-.8-.8a1.044,1.044,0,0,0-1.3-.122,7.33,7.33,0,0,1-2.9,1,8.124,8.124,0,0,1-3.076-.178,5.623,5.623,0,0,1-2.58-1.411h0a4.218,4.218,0,0,1-.929-1.393,1.309,1.309,0,0,1,.024-.992,1.047,1.047,0,0,1,.936-.556h11.667a1.07,1.07,0,0,0,1.068-1.063Zm-13.4-3.473a5.4,5.4,0,0,1,2.528-2.128,6.525,6.525,0,0,1,2.786-.516,5.277,5.277,0,0,1,2.629.775h0a4.056,4.056,0,0,1,1.626,1.966,3.221,3.221,0,0,1,.208,1.53H298.285a2.435,2.435,0,0,1,.332-1.628Z" transform="translate(-17.21 -2.736)" fill="#eeeef0"></path></g></svg>