<svg xmlns="http://www.w3.org/2000/svg" width="124.5" height="44" viewBox="0 0 124.5 44"><g id="Group_13296" data-name="Group 13296" transform="translate(-541.5 -682)"><rect id="Rectangle_5604" data-name="Rectangle 5604" width="124.5" height="44" transform="translate(541.5 682)" fill="#f23d4f" opacity="0"></rect><g id="Absolut_Vodka_logo" transform="translate(529.27 691.244)"><g id="Group_13297" data-name="Group 13297" transform="translate(21.592 2.305)"><path id="Path_8711" data-name="Path 8711" d="M37.549,23.786S33.375,4.3,33.285,3.816s.072-.669.072-.669H26.544c.235.181.072.651.072.651s-4.409,19.265-4.554,19.88-.47.741-.47.741h6.415c-.163-.145-.127-.6-.127-.6L28.3,21h3.181s.325,2.3.379,2.8-.127.615-.127.615H37.95C37.712,24.328,37.549,23.786,37.549,23.786Zm-8.656-6.669,1.03-6.867.994,6.867Z" transform="translate(-21.592 -2.688)" fill="#a8a8aa"></path><path id="Path_8712" data-name="Path 8712" d="M61.864,13.458s3.759-.415,3.633-5.241c-.181-5.277-6.669-5.006-6.669-5.006h-7.1a2.011,2.011,0,0,1,.217.8V23.687a2.056,2.056,0,0,1-.2.8h7.9c2.024,0,6.741-.868,6.615-5.837S61.864,13.458,61.864,13.458Zm-1.9-3.994a1.9,1.9,0,0,1-2.15,2.151c0-2.115-.036-4.1-.036-4.1a1.846,1.846,0,0,1,2.188,1.949Zm-2.2,10.392V15.482a2.017,2.017,0,0,1,2.4,2.2,1.986,1.986,0,0,1-2.4,2.174Z" transform="translate(-35.28 -2.716)" fill="#a8a8aa"></path><path id="Path_8713" data-name="Path 8713" d="M86.917,10.06c-1.122-.9-1.7-2.53.4-2.711A5.684,5.684,0,0,1,90.984,8.8V3.174a.725.725,0,0,1-.777.018,10.817,10.817,0,0,0-1.952-.6,7.781,7.781,0,0,0-6.018.994c-1.229.9-2.1,1.862-2.241,4.844s1.112,4.254,2.837,5.982A16.557,16.557,0,0,1,85.96,17.18c.615.615.651,2.042-1.374,2.241-2.1.072-4.572-2.1-4.572-2.1v6.054c.217-.145.6,0,1.428.452a8.641,8.641,0,0,0,8.114-.488c2.367-1.608,3.109-5.566,2.4-7.916S88.85,11.607,86.917,10.06Z" transform="translate(-48.116 -2.353)" fill="#a8a8aa"></path><path id="Path_8714" data-name="Path 8714" d="M111.023,2.331s-7.888-1.1-7.888,11.041,7.888,11.165,7.888,11.165,7.9.686,7.9-11.165S111.023,2.331,111.023,2.331Zm0,17.218s-1.889.727-1.889-6.177,1.889-6.362,1.889-6.362,1.8-.538,1.8,6.362S111.023,19.549,111.023,19.549Z" transform="translate(-58.632 -2.305)" fill="#a8a8aa"></path><path id="Path_8715" data-name="Path 8715" d="M140.192,19.464V3.922a1.307,1.307,0,0,1,.163-.741h-6.307a1.146,1.146,0,0,1,.2.8V23.549c0,.759-.2.867-.2.867h10.428V19.247a1.624,1.624,0,0,1-.759.217h-3.524Z" transform="translate(-72.674 -2.703)" fill="#a8a8aa"></path><path id="Path_8716" data-name="Path 8716" d="M162.928,4.03V18.56a1.474,1.474,0,0,1-1.508,1.54,1.7,1.7,0,0,1-1.694-1.536V3.94c0-.6.2-.759.2-.759h-6.14c.163.091.235.759.235.759V18.56s.15,6.379,7.288,6.379,7.242-6.415,7.242-6.415V3.9a1.329,1.329,0,0,1,.181-.687H162.7a1.764,1.764,0,0,1,.232.817Z" transform="translate(-81.639 -2.703)" fill="#a8a8aa"></path><path id="Path_8717" data-name="Path 8717" d="M182.427,8.364a1.562,1.562,0,0,1,.777-.181h2.7V23.672c0,.6-.181.777-.181.777h6.325c-.2-.2-.2-.813-.2-.813V8.184h2.747a1.183,1.183,0,0,1,.687.181V3.214h-12.85v5.15Z" transform="translate(-94.65 -2.718)" fill="#a8a8aa"></path><path id="Path_8718" data-name="Path 8718" d="M209.86,2.488a2.055,2.055,0,1,0,1.469.592A2.058,2.058,0,0,0,209.86,2.488Zm0,3.773a1.664,1.664,0,0,1-1.677-1.72,1.672,1.672,0,1,1,3.343,0,1.662,1.662,0,0,1-1.666,1.72Z" transform="translate(-106.162 -2.388)" fill="#a8a8aa"></path><path id="Path_8719" data-name="Path 8719" d="M211.886,4.76c0-.468-.278-.675-.838-.675h-.9V6.459h.359V5.43h.414l.625,1.029h.4l-.675-1.046a.618.618,0,0,0,.615-.653Zm-1.383.365V4.39h.49c.25,0,.517.055.517.348,0,.365-.272.386-.577.386Z" transform="translate(-107.241 -3.114)" fill="#a8a8aa"></path></g></g></g></svg>