<svg xmlns="http://www.w3.org/2000/svg" width="124.5" height="44" viewBox="0 0 124.5 44"><g id="Group_13295" data-name="Group 13295" transform="translate(-541.5 -596)"><rect id="Rectangle_5600" data-name="Rectangle 5600" width="124.5" height="44" transform="translate(541.5 596)" fill="#f23d4f" opacity="0"></rect><g id="bbva" transform="translate(560.211 604.901)"><path id="Path_8707" data-name="Path 8707" d="M158.863,10.946l-7.5,14.255a.461.461,0,0,1-.8,0l-7.5-14.255a.4.4,0,0,0-.369-.246h-3.625a.328.328,0,0,0-.276.492L150.6,33.28a.435.435,0,0,0,.768,0l11.8-22.088a.328.328,0,0,0-.277-.492h-3.625A.536.536,0,0,0,158.863,10.946Z" transform="translate(-96.131 -7.378)" fill="#a8a8aa"></path><path id="Path_8708" data-name="Path 8708" d="M208.2,22.584l7.5-14.255a.461.461,0,0,1,.8,0l7.5,14.255a.4.4,0,0,0,.369.246h3.625a.323.323,0,0,0,.276-.492L216.467.28a.435.435,0,0,0-.768,0L203.9,22.338a.328.328,0,0,0,.277.492H207.8A.412.412,0,0,0,208.2,22.584Z" transform="translate(-141.231)" fill="#a8a8aa"></path><path id="Path_8709" data-name="Path 8709" d="M15.791,21.307a4.9,4.9,0,0,0,2.55-4.547c0-3.533-2.765-5.96-6.666-5.96H.43a.42.42,0,0,0-.43.43V33.165a.439.439,0,0,0,.43.43H11.152c5.376,0,8.2-2.3,8.2-6.851A5.352,5.352,0,0,0,15.791,21.307ZM4.209,14.087h6.666c2.458,0,3.717,1.045,3.717,2.98s-1.229,2.98-3.717,2.98H4.209a.42.42,0,0,1-.43-.43v-5.1A.42.42,0,0,1,4.209,14.087Zm6.759,16.19H4.209a.42.42,0,0,1-.43-.43V23.8a.42.42,0,0,1,.43-.43h6.759c3.226,0,4.67.922,4.67,3.471S14.193,30.277,10.967,30.277Z" transform="translate(0 -7.447)" fill="#a8a8aa"></path><path id="Path_8710" data-name="Path 8710" d="M90.791,21.307a4.9,4.9,0,0,0,2.55-4.547c0-3.533-2.765-5.96-6.666-5.96H75.43a.42.42,0,0,0-.43.43V33.165a.42.42,0,0,0,.43.43H86.152c5.376,0,8.2-2.3,8.2-6.851A5.388,5.388,0,0,0,90.791,21.307ZM79.209,14.087h6.666c2.458,0,3.717,1.045,3.717,2.98s-1.26,2.98-3.717,2.98H79.209a.42.42,0,0,1-.43-.43v-5.1A.4.4,0,0,1,79.209,14.087Zm6.728,16.19H79.178a.42.42,0,0,1-.43-.43V23.8a.42.42,0,0,1,.43-.43h6.759c3.226,0,4.67.922,4.67,3.471S89.193,30.277,85.937,30.277Z" transform="translate(-51.959 -7.447)" fill="#a8a8aa"></path></g></g></svg>