<svg xmlns="http://www.w3.org/2000/svg" width="153.914" height="31" viewBox="0 0 153.914 31"><path id="Path_4253" data-name="Path 4253" d="M131.3.241h-.983L123.031,14.59,115.653.241h-1.07l-2.057,15.722a8.919,8.919,0,0,1-.8,2.934h2.042a9.361,9.361,0,0,1,.076-3.073l1.272-9.616L121.645,18.9h.764l6.545-12.678,1.218,9.423a11.18,11.18,0,0,1-.039,3.256h4.093a8.223,8.223,0,0,1-.806-2.945L131.3.241M38.451,0C32.493,0,27.825,4.215,27.825,9.661s4.668,9.651,10.626,9.651S49.074,15.1,49.074,9.661,44.406,0,38.451,0Zm.3,17.87c-4.119,0-7.389-3.529-7.56-8.21s2.545-8.219,6.958-8.219c4.119,0,7.388,3.531,7.562,8.219s-2.847,8.21-6.96,8.21ZM149.706,18.9h4.208a8.974,8.974,0,0,1-2.013-3.05L145.293.248h-.8l-6.725,16.034a10.088,10.088,0,0,1-1.554,2.615h1.905l2.572-6.23h6.457l2.555,6.23Zm-8.486-7.5,2.716-6.578,2.693,6.578ZM9.788,8.033A3.889,3.889,0,0,0,12.35,4.649,3.717,3.717,0,0,0,9.865.922,12.519,12.519,0,0,0,5.512.307H.017A4.616,4.616,0,0,1,.529,2.722V16.38A4.306,4.306,0,0,1,0,18.9H5.945a13.592,13.592,0,0,0,5.05-.869,4.865,4.865,0,0,0,2.746-4.67c0-3.167-2.339-4.619-3.953-5.324Zm-6.153-6.5c.291-.018.731-.018,1.313-.018a9.163,9.163,0,0,1,1.776.163,2.921,2.921,0,0,1,2.44,2.979A2.514,2.514,0,0,1,6.93,7.293c-.3.045-1.132.116-1.435.116-.7,0-1.354-.008-1.86-.024V1.537Zm3.7,16a12.2,12.2,0,0,1-1.549.155c-.269,0-1.8-.007-2.154-.019V8.645c.257,0,1.319-.018,1.657-.018a10.859,10.859,0,0,1,1.731.161c2.137.466,3.44,1.964,3.414,4.63a3.868,3.868,0,0,1-3.1,4.115Zm72.986.092.007-8.943H86.9l.441-1.269H80.332l.006-5.837h5.086a6.042,6.042,0,0,1,3.19.737L87.706.307H76.716A4.8,4.8,0,0,1,77.2,2.722V16.38a4.489,4.489,0,0,1-.5,2.517H88.767l.942-2.019a7.247,7.247,0,0,1-3.547.746H80.325M64.65.672a19.511,19.511,0,0,0-3.37-.365H53.8a4.766,4.766,0,0,1,.485,2.416V16.38a4.48,4.48,0,0,1-.5,2.518h7a27.7,27.7,0,0,0,3.134-.217c5.25-.736,8.305-4.25,8.305-8.951,0-4.589-3.112-7.953-7.58-9.058ZM62.708,17.525a20.125,20.125,0,0,1-2.216.117c-1.516,0-2.48.007-3.067-.044V1.66c.587-.019,1.845-.056,2.553-.056a13.815,13.815,0,0,1,3.738.534,7.612,7.612,0,0,1,5.069,7.546c0,4.228-1.846,7.239-6.077,7.841ZM23.13.307H19.062a4.777,4.777,0,0,1,.486,2.416V16.38a4.479,4.479,0,0,1-.5,2.517H23.12a4.762,4.762,0,0,1-.49-2.418V2.825a4.488,4.488,0,0,1,.5-2.518m78.1,9.92c2.436-.243,5.43-1.6,5.43-4.746,0-3.054-1.975-4.308-4.2-4.819a22.316,22.316,0,0,0-4.91-.355H93.719a4.79,4.79,0,0,1,.487,2.416V16.38a4.479,4.479,0,0,1-.5,2.517h4.167a4.893,4.893,0,0,1-.534-2.5V1.565a13.8,13.8,0,0,1,3.029.18,3.554,3.554,0,0,1,3.1,3.789c0,2.094-1.31,4.518-5.058,3.693l-.421.277a38.242,38.242,0,0,0,7.97,9.393h4.718a41.605,41.605,0,0,1-9.448-8.67M.974,29.2l2.052,0v.64l-3.008,0,0-5.009H.977l0,4.371m4.339.643H4.457L6.71,24.819h.568L9.317,29.85H8.329l-.505-1.241H5.854l-.541,1.236Zm1.558-3.632L6.1,28.022H7.591Zm4.453-1.374h1.6c1.119,0,1.815.506,1.815,1.161a1.245,1.245,0,0,1-.9,1.132,1.4,1.4,0,0,1,1.375,1.248c0,.857-.974,1.474-1.993,1.474l-1.9,0,0-5.01ZM14.2,28.41c0-.47-.385-.82-1.158-.82h-.777v1.684H13C13.754,29.276,14.2,28.914,14.2,28.41Zm-1.464-1.4c.624,0,1.036-.333,1.038-.85.008-.428-.333-.743-1.042-.745h-.465l0,1.6h.472Zm10.027.345a2.624,2.624,0,0,1-2.8,2.6,2.577,2.577,0,0,1-2.8-2.6,2.636,2.636,0,0,1,2.807-2.609A2.558,2.558,0,0,1,22.765,27.358Zm-4.582,0a1.79,1.79,0,1,0,3.562,0,1.79,1.79,0,1,0-3.562,0Zm9.939,2.586-1.546-2.33H26v2.25h-.955V24.85h1.543c1.336,0,1.98.662,1.978,1.3a1.456,1.456,0,0,1-1.059,1.278L29.2,29.864l-1.077.076Zm-1.614-2.918c.771,0,1.119-.421,1.119-.8,0-.405-.329-.782-1.11-.782h-.511v1.586h.5Zm4.821,2.844h-.852l2.249-5.025H33.3l2.033,5.032-.987,0-.5-1.24H31.871l-.542,1.236Zm1.561-3.633-.773,1.81h1.492Zm3.217-1.372,4.477,0v.645H38.826l0,4.368-.951,0,0-4.366-1.768,0v-.644m11.318,2.513a2.62,2.62,0,0,1-2.806,2.6,2.569,2.569,0,0,1-2.8-2.6,2.627,2.627,0,0,1,2.8-2.605A2.556,2.556,0,0,1,47.425,27.374Zm-4.58,0a1.789,1.789,0,1,0,3.56,0,1.79,1.79,0,1,0-3.56,0Zm6.863,2.511,0-5.014h.947l0,5.014h-.948m6.529.081-1.545-2.333h-.573l0,2.256h-.953l0-5.015h1.539c1.335,0,1.981.662,1.981,1.294a1.448,1.448,0,0,1-1.063,1.277l1.687,2.444-1.077.076Zm-1.613-2.919c.772,0,1.116-.42,1.116-.8,0-.408-.327-.781-1.107-.781h-.511l0,1.585h.505Zm8.028,2.844h-3.34l0-5.011h3.239v.641l-2.288,0v1.474h1.676v.64l-1.677,0V29.25l2.388.006v.634m5.532-5.005,1.713,0c1.783,0,3,.946,3,2.492a2.8,2.8,0,0,1-3,2.519H68.178Zm1.735,4.378a1.942,1.942,0,0,0,1.955-1.884A1.8,1.8,0,0,0,69.9,25.527l-.769,0-.006,3.733.789,0Zm8.6.643H75.18l0-5.014h3.24l0,.639H76.137l0,1.473h1.678l0,.64H76.133v1.624h2.387v.637m5.211.081-1.547-2.331h-.573v2.252h-.954l0-5.013H82.2c1.332,0,1.978.664,1.978,1.295a1.452,1.452,0,0,1-1.063,1.278l1.689,2.443-1.077.075ZM82.115,27.07c.771,0,1.121-.422,1.121-.8,0-.405-.33-.782-1.11-.782h-.512l0,1.584Zm10.168,2.847h-.931l-.063-3.384L89.7,29.965h-.6L87.587,26.6l-.135,3.311h-.786l.219-5.014h.895l1.736,3.9L91.3,24.9l.863,0,.122,5.011m2.747,0h-.851l2.248-5.031H97l2.034,5.031h-.988l-.5-1.241H95.571l-.541,1.242Zm1.562-3.64-.773,1.812h1.492l-.719-1.812Zm3.221-1.371,4.473.006v.645l-1.758,0,0,4.366h-.952l0-4.366-1.764,0v-.646m11.313,2.519a2.619,2.619,0,0,1-2.8,2.6,2.574,2.574,0,0,1-2.8-2.6,2.63,2.63,0,0,1,2.8-2.607,2.552,2.552,0,0,1,2.8,2.611Zm-4.581,0a1.791,1.791,0,1,0,3.564,0,1.791,1.791,0,1,0-3.564,0Zm7.82,1.87h2.054v.64h-3.008l0-5.013h.954l0,4.374m9.091-1.855a2.624,2.624,0,0,1-2.8,2.6,2.568,2.568,0,0,1-2.795-2.6,2.624,2.624,0,0,1,2.8-2.6A2.553,2.553,0,0,1,123.456,27.44Zm-4.583,0a1.79,1.79,0,1,0,3.563,0,1.791,1.791,0,1,0-3.563,0Zm9.561,2.6a2.621,2.621,0,1,1-.007-5.209,4.427,4.427,0,0,1,1.841.342l-.283.618a3.81,3.81,0,0,0-1.516-.29,1.938,1.938,0,0,0-1.933,1.941,1.916,1.916,0,0,0,2,1.932,2.9,2.9,0,0,0,1-.128V27.789l.935,0,0,1.877a4.88,4.88,0,0,1-2.027.374m4.252-.094,0-5.01.944,0-.007,5.008h-.94m8.772.346-.315.707-3.248-1.042a2.5,2.5,0,0,1-1.97-2.51,2.627,2.627,0,0,1,2.8-2.605,2.554,2.554,0,0,1,2.8,2.61,2.441,2.441,0,0,1-1.851,2.4l1.784.445Zm-4.513-2.844a1.791,1.791,0,1,0,3.564,0,1.791,1.791,0,1,0-3.564,0Zm11.171.842c0,.8-.634,1.767-2.233,1.765-1.448,0-2.228-.7-2.226-1.737V24.944l.957,0-.007,3.281c0,.785.408,1.174,1.343,1.174a1.171,1.171,0,0,0,1.3-1.174l0-3.28h.865l0,3.342m5.8,1.673h-3.338l0-5.013h3.241v.64l-2.288,0,0,1.474,1.674,0V27.7l-1.674,0v1.625h2.385v.637" transform="translate(0 -0.001)" fill="#bababc" opacity="0.9"></path></svg>