<svg xmlns="http://www.w3.org/2000/svg" width="110" height="36" viewBox="0 0 110 36"><g id="Group_2986" data-name="Group 2986" transform="translate(-17.132 -15.21)" opacity="0.9"><g id="Coca-Cola_logo" transform="translate(17.132 15.21)"><path id="Path_1229" data-name="Path 1229" d="M42.22,31.4c-4.091-2.635-9.643-3.1-18.6-.614-9.545,2.243-12.728,3.681-16.908.794-1.606-1.418-2.181-3.7-1.752-6.99,1-5.361,3.691-10.52,8.478-16.243,2.671-2.977,5.149-5.532,8.421-6.558,2.508-.644,2.273,1.327,1.97,1.609a2.427,2.427,0,0,0-1.274.322,3.3,3.3,0,0,0-1.313,2.243c-.072,1.74,1.729,1.378,2.505.422.837-1.076,2.074-3.138,1.1-5.059A2.859,2.859,0,0,0,22.865.013c-3-.171-5.787,1.257-8.362,2.836A36.537,36.537,0,0,0,1.816,18.117C.346,21.7-.983,26.827,1.01,31c1.541,2.9,4.741,4.435,8.559,4.113a67.449,67.449,0,0,0,8.093-1.669c2.178-.523,13.324-4.355,16.987,2.314a4.946,4.946,0,0,1,4.262-2.415A14.025,14.025,0,0,1,47.65,36,22.231,22.231,0,0,0,42.22,31.4Z" transform="translate(-0.001 0.001)" fill="#adadaf"></path><path id="Path_1230" data-name="Path 1230" d="M97.529,9.113c-2.086-1.368-6.279,1.247-9.637,5.733-3.071,4.024-4.4,8.7-2.954,10.862,2.147,2.544,6.132-1.157,7.826-3.138l.219-.232a24.7,24.7,0,0,0,2.9-4.154s.792-1.307.83-1.368c.49-.09,1.079-.231,1.744-.422-.009.03-2.542,4.284-2.284,6.4.08.644.019,3,2.318,3.712,3.064.513,5.511-1.861,7.67-3.973,0,0,.368-.352.576-.552-.053.211-.121.492-.121.492-.9,3.118.312,3.772,1.069,4.014,2.286.664,5.017-2.655,5.026-2.655-.071,1.046-.278,1.91.825,2.6a3.347,3.347,0,0,0,2.9-.729c2.884-2.031,5.208-5.211,7.085-7.96h-1.2c-.014,0-2.954,4.259-4.863,5.184,0,0-.351.178-.551.037-.248-.211-.15-.651,0-.962.01-.02,7.371-12.78,7.371-12.78h-3.476s-.38.614-.411.654c-.023-.02-.079-.126-.118-.176-2.153-2.977-7.03,1.6-10.7,6.912a34.879,34.879,0,0,1-5.079,6s-2.764,2.533-3.946.713a3.51,3.51,0,0,1-.055-2.616,21.745,21.745,0,0,1,6.442-9.606,2.013,2.013,0,0,1,2-.513.871.871,0,0,1,.207,1.2,1.938,1.938,0,0,0-1.54.593,2.391,2.391,0,0,0-.83,2.424c1.245,1.77,3.727-1.73,3.607-3.862a2.289,2.289,0,0,0-1.06-1.841,3.657,3.657,0,0,0-3.189.031,14.2,14.2,0,0,0-4.207,3.259c-1.4,1.539-3.789,3.249-4.537,3.057.245-.654,2.266-4.787.14-6.336Zm16.757,6.115a48.144,48.144,0,0,1,3.124-3.862c1.614-1.419,2.258-.794,2.314-.352-1.506,2.7-3.283,5.783-4.954,8.559,0-.01-.523.794-.523.794a7.7,7.7,0,0,1-2.693,2.765.781.781,0,0,1-.647-.071.685.685,0,0,1-.293-.664c.073-.865.954-3.509,3.672-7.171ZM95.377,16.848s-.03.091-.045.121c0,0-1.515,2.464-1.515,2.464a11.593,11.593,0,0,1-3.475,3.48c-.422.141-1.005.232-1.3-.14-.63-.754-.305-1.8-.042-2.645l.093-.3a25.016,25.016,0,0,1,3.125-5.542.154.154,0,0,1,.059-.02.082.082,0,0,1,.009.03,5.016,5.016,0,0,0,3.136,2.364c.006,0,.013.01.013.03A.5.5,0,0,1,95.377,16.848Zm1.432-2.906c-.007.02-.673,1.549-.673,1.549-.1.08-.249.04-.423,0l-.3-.051a2.686,2.686,0,0,1-1.867-1.659c-.3-1.448.937-2.585,1.482-3a1.651,1.651,0,0,1,1.809-.181,1.9,1.9,0,0,1,.4,1.268A6.88,6.88,0,0,1,96.809,13.941Zm43.939,4.666a2.046,2.046,0,0,0-1.979-1.137c-2.753.252-5.446,2.515-6.861,5.763a16.536,16.536,0,0,0-1.413,5.24,14.506,14.506,0,0,1,4.584-3.49,9.53,9.53,0,0,1,1.645-3.973c.52-.775,1.562-2.022,2.731-1.69,1.022.342.662,3.168-.7,5.9a18.968,18.968,0,0,1-4.1,5.412c-1.375,1.167-3.41,2.575-5.19,1.489-1.121-.664-1.693-2.052-1.572-3.842.536-5.079,2.849-9.4,6.16-14.332,3.414-4.576,7.176-9.273,12.245-11.778a3.423,3.423,0,0,1,2.819-.322A18.477,18.477,0,0,0,142.1,9.3c-.577,1.227-1.38,2.886-.571,4.355a1.7,1.7,0,0,0,1.776.784c2.78-.644,4.577-3.239,6.044-5.612a13.082,13.082,0,0,0,1.607-5.582c0-.241-.013-.563-.033-.8,1.328-.7,4.052.543,4.052.543,2.128.7,6.661,4.174,8.189,4.838.746-.865,1.971-2.172,2.661-2.826l-1-.614c-1.6-.976-3.29-1.9-4.953-2.816A9.913,9.913,0,0,0,151.453.8c-.615.221-1.177.412-1.177.412-1.162-1.267-3.067-1.147-4.471-.8-5.048,1.448-9.736,4.978-14.761,11.1-3.695,4.8-5.986,8.942-7.208,13.035-.942,2.756-1.228,6.809,1.07,9.213,1.954,2.041,4.545,1.6,6.374.865,3.964-1.951,7.527-6.156,9.3-10.993.428-1.438.9-3.47.166-5.019Zm9.115-15.157c-.525,6.015-5.2,9.545-6.36,9.826-.7.141-1.9-.171-.83-2.7a16.79,16.79,0,0,1,7.142-7.765,1.539,1.539,0,0,1,.048.634Zm27.749.764a13.429,13.429,0,0,1-8.282,2.032c-.875.986-1.727,2-2.512,3.047,4.432,1.127,9.13-1.378,11.75-3.761A18.485,18.485,0,0,0,182.762.1,22.021,22.021,0,0,1,177.613,4.215ZM130.059,9.224h-3.3L124.9,12.247h3.3Z" transform="translate(-72.762 -0.088)" fill="#adadaf"></path><path id="Path_1231" data-name="Path 1231" d="M512.1,34.275c-.355.241-.853.056-.667-.5a28.774,28.774,0,0,1,2.309-4.278l5.139-9.115h-3.52c-.168.275-.525.906-.525.906a4.842,4.842,0,0,0-.851-1,3.1,3.1,0,0,0-2.992.206c-3.785,2.213-6.546,6.585-8.724,10,0,0-2.292,3.79-3.565,4.072-.993.081-.891-1.258-.848-1.57a25.551,25.551,0,0,1,2.175-6.337,48.659,48.659,0,0,0,5.81-4.747,58.175,58.175,0,0,0,8.09-9.384,8.018,8.018,0,0,1-1.2.131c-3.165,4.415-9.642,10.832-11.606,11.788.87-2.092,6.49-12.079,11.273-16.857l.753-.724c1.164-1.137,2.37-2.3,3.309-2.494.1-.01.227,0,.337.232a4.342,4.342,0,0,1-.665,2.283l-.53,1.086a12.288,12.288,0,0,0,1.243-.3,5.822,5.822,0,0,0,.971-3.721,1.068,1.068,0,0,0-.85-.9c-1.427-.272-2.982.784-4.233,1.639l-.05.03c-6.432,5.039-11.863,12.3-16.611,22.218a3.4,3.4,0,0,1-1.9.422,16.131,16.131,0,0,0,1.355-3.671,9.758,9.758,0,0,0,.1-1.217,2.559,2.559,0,0,0-.983-2.243,3.4,3.4,0,0,0-2.791.1c-3.394,1.408-5.931,4.888-7.762,7.754a17.008,17.008,0,0,0-2.238,6c-.191,1.75.2,2.876,1.193,3.44a3.329,3.329,0,0,0,2.817-.282c3.439-1.81,5.841-5.441,7.735-8.76a11.093,11.093,0,0,0,1.892-.241.048.048,0,0,1,.032.01c-.045.15-.449,1.358-.449,1.358-1.2,3.52-1.755,5.914-.622,7.332,1.62,2,4.3-.07,6.484-2.806-.468,3.279,1.231,3.792,2.526,3.541a10.376,10.376,0,0,0,3.915-2.806c-.247.955-.18,2.665,1.174,2.836a3.628,3.628,0,0,0,2.425-.766c2.882-1.569,6.331-6.8,7.227-8.31h-1.174C515.761,30.555,514.141,33.078,512.1,34.275Zm-25.867-.35a1.585,1.585,0,0,1-.249-.89c-.035-1.972,2.087-5.5,3.584-7.428h0a5.825,5.825,0,0,0,2.907,2.63C491.416,30.612,487.761,35.7,486.237,33.925Zm6.846-6.749a2.982,2.982,0,0,1-2.24-2.192,3.013,3.013,0,0,1,1.642-3.108,1.646,1.646,0,0,1,1.475-.272,1.493,1.493,0,0,1,.533,1.328,8.076,8.076,0,0,1-.083.986l-.009.071a13.394,13.394,0,0,1-1.318,3.188Zm14.375,6.115s-.34.3-.34.3c-.484.432-.981.895-1.582.664a.6.6,0,0,1-.311-.453,7.828,7.828,0,0,1,1.07-3.5l.139-.292c1.554-2.595,3.36-5.652,6.013-7.774a1.5,1.5,0,0,1,1.444-.382.751.751,0,0,1,.255.493.832.832,0,0,1-.085.272c-.741,1.2-1.447,2.454-2.133,3.661A50.8,50.8,0,0,1,507.458,33.292Z" transform="translate(-415.54 -2.592)" fill="#adadaf"></path></g></g></svg>