<svg xmlns="http://www.w3.org/2000/svg" width="143.13" height="27" viewBox="0 0 143.13 27"><path id="Exxon_Mobil_Logo" d="M56.055,5.221h3.957V6.573a6.168,6.168,0,0,1,4.33-1.683,5.3,5.3,0,0,1,5.35,5.657v8.97H65.512V11.658c0-1.927-.939-3.069-2.64-3.069-1.647,0-2.638,1.077-2.638,3.069v7.858H56.055V5.221m39.808,7.147a7.628,7.628,0,1,1,7.627,7.474,7.487,7.487,0,0,1-7.627-7.474m4.126,0a3.53,3.53,0,1,0,7.058,0,3.53,3.53,0,1,0-7.058,0m-61.523,0a7.628,7.628,0,1,1,7.625,7.471,7.488,7.488,0,0,1-7.625-7.471m4.126,0a3.53,3.53,0,1,0,7.058,0,3.53,3.53,0,1,0-7.058,0m88.8-8.733h4.236V0h-4.236Zm0,15.879h4.236V5.221h-4.236Zm7.5,0h4.238V0h-4.238Zm-21.309,0h-4.017V0h4.063V6.356a6.321,6.321,0,0,1,4.394-1.466,7.166,7.166,0,0,1,6.9,7.482,7.3,7.3,0,0,1-6.949,7.474,6.4,6.4,0,0,1-4.345-1.429l-.046,1.1m7.047-7.156a3.576,3.576,0,0,0-7.152.011,3.576,3.576,0,0,0,7.152-.011m-110.8,7.156h4.9l4.4-5.661,2.746,2.782-6.285,7.869h4.917l4.024-5.215L36.109,27h5.936L31.159,16.053,39.733,5.221h-4.92l-6.336,8.136L25.735,10.6l7.048-8.876H27.876L23.062,7.918l-2.614-2.7H14.594l5.9,5.954-6.664,8.342M0,0V19.517H12.854V15.875H4.373V11.212h8.1V7.682h-8.1V3.636h8.481V0H0M73.039,0V19.517h4.112V4.781h.187l3.538,14.737H85.5L89.117,4.781H89.3V19.517h4.112V0H86.7L83.358,14.244h-.149L79.948,0H73.039" fill="#bfbfc2" opacity="0.9"></path></svg>