<svg xmlns="http://www.w3.org/2000/svg" width="106.515" height="28.742" viewBox="0 0 106.515 28.742"><g id="layer1" transform="translate(-247.313 -568.933)" opacity="0.9"><path id="path15912" d="M265.629,569.985a1.845,1.845,0,0,0-.413,1.3v17.057h-.095s-9.336-16.644-9.787-17.414a3.217,3.217,0,0,0-1.146-1.2,3.5,3.5,0,0,0-1.9-.431h-3.08a1.8,1.8,0,0,0-1.484.62,1.841,1.841,0,0,0-.414,1.3v24.177a1.845,1.845,0,0,0,.414,1.3,1.806,1.806,0,0,0,1.484.619h1.747a1.808,1.808,0,0,0,1.484-.619,1.851,1.851,0,0,0,.413-1.3V577.912h.094s9.693,17.17,10.088,17.809a3.136,3.136,0,0,0,2.78,1.577H268.8a1.808,1.808,0,0,0,1.484-.619,1.851,1.851,0,0,0,.413-1.3V573.572h39.243a1.39,1.39,0,0,0,.921-.3,1.229,1.229,0,0,0,.357-.977v-1.653a1.225,1.225,0,0,0-.357-.977,1.391,1.391,0,0,0-.921-.3H267.113a1.809,1.809,0,0,0-1.484.62m17.133,6.462c-6.519,0-10.182,5.092-10.182,10.465,0,5.729,3.927,10.764,10.22,10.764a10.567,10.567,0,0,0,7.983-3.269,5.544,5.544,0,0,0,1.391-2.93.958.958,0,0,0-.206-.658.9.9,0,0,0-.771-.3h-3.025a1.453,1.453,0,0,0-1.315.676,4.493,4.493,0,0,1-4.039,1.973,4.69,4.69,0,0,1-4.771-4.49h13.075a1.718,1.718,0,0,0,1.277-.413,1.936,1.936,0,0,0,.47-1.542,11.008,11.008,0,0,0-2.386-6.969,9.6,9.6,0,0,0-7.721-3.307m20.156,0c-5.146,0-8.528,2.443-8.528,6.35a4.83,4.83,0,0,0,1.334,3.4,8.468,8.468,0,0,0,4.321,2.255l4.3,1.089c1.183.3,2.235.658,2.235,1.691,0,1.6-1.691,2.142-3.493,2.142a5.841,5.841,0,0,1-2.556-.544,3.183,3.183,0,0,1-1.3-1.146c-.282-.433-.375-.752-.808-1a2.016,2.016,0,0,0-1.014-.169h-2.33a1.06,1.06,0,0,0-.92.357,1.28,1.28,0,0,0-.226.808,4.41,4.41,0,0,0,.884,2.536c1.427,1.916,4.414,3.457,8.227,3.457,3.758,0,8.962-1.56,8.962-6.595a5.284,5.284,0,0,0-1.072-3.305,7.208,7.208,0,0,0-4.282-2.48l-4.264-1.09c-1.767-.45-2.593-.769-2.593-1.86,0-1.052.94-1.9,3.118-1.9a4.294,4.294,0,0,1,3.195,1.072c.619.658.507,1,1,1.258a2.57,2.57,0,0,0,1.165.15H310.4a.939.939,0,0,0,.769-.264,1.238,1.238,0,0,0,.245-.864,4.6,4.6,0,0,0-1.765-3.194,10.317,10.317,0,0,0-6.727-2.161m11.7.715H313.57a1.387,1.387,0,0,0-.92.3,1.225,1.225,0,0,0-.358.977v1.3a1.223,1.223,0,0,0,.358.977,1.387,1.387,0,0,0,.92.3h1.052v9.373A6.572,6.572,0,0,0,316.5,595.5a6.713,6.713,0,0,0,5.148,1.8h1.6a1.39,1.39,0,0,0,.921-.3,1.246,1.246,0,0,0,.394-.977v-1.635a1.244,1.244,0,0,0-.394-.977,1.391,1.391,0,0,0-.921-.3h-.225a3,3,0,0,1-2.179-.714,3.132,3.132,0,0,1-.845-2.386v-9h3.42a1.387,1.387,0,0,0,.92-.3,1.227,1.227,0,0,0,.357-.977v-1.3a1.229,1.229,0,0,0-.357-.977,1.386,1.386,0,0,0-.92-.3h-3.4v-6.125a1.725,1.725,0,0,0-.375-1.126,1.533,1.533,0,0,0-1.258-.546h-2.123a1.534,1.534,0,0,0-1.259.546,1.725,1.725,0,0,0-.375,1.126Zm11.5,18.465a1.725,1.725,0,0,0,.375,1.128,1.53,1.53,0,0,0,1.258.544h2.235a1.533,1.533,0,0,0,1.259-.544,1.732,1.732,0,0,0,.375-1.128V571.038a1.732,1.732,0,0,0-.375-1.128,1.533,1.533,0,0,0-1.259-.546h-2.235a1.531,1.531,0,0,0-1.258.546,1.725,1.725,0,0,0-.375,1.128Zm-48.035-10.952a4.75,4.75,0,0,1,9.393,0h-9.393Zm73.884-11.1a1.386,1.386,0,0,0,.92-.3,1.225,1.225,0,0,0,.358-.977v-1.748a1.7,1.7,0,0,0-.358-1.258,1.24,1.24,0,0,0-.92-.357,10.545,10.545,0,0,0-1.108.093l-14.992,1.484a1.069,1.069,0,0,0-.788.338,1.087,1.087,0,0,0-.245.771v.976a.928.928,0,0,0,.208.7.947.947,0,0,0,.751.281h16.174Zm-8.284,2.874c-6.519,0-10.182,5.092-10.182,10.465,0,5.729,3.927,10.764,10.22,10.764a10.567,10.567,0,0,0,7.983-3.269,5.545,5.545,0,0,0,1.391-2.93.952.952,0,0,0-.208-.658.9.9,0,0,0-.769-.3h-3.025a1.453,1.453,0,0,0-1.315.676,4.493,4.493,0,0,1-4.039,1.973,4.69,4.69,0,0,1-4.771-4.49h13.112a1.716,1.716,0,0,0,1.277-.413,1.936,1.936,0,0,0,.47-1.542,11.009,11.009,0,0,0-2.386-6.969,9.683,9.683,0,0,0-7.758-3.307m-4.678,8.228a4.75,4.75,0,0,1,9.393,0h-9.393Z" transform="translate(0 0)" fill="#b4b4b6"></path></g></svg>