<svg xmlns="http://www.w3.org/2000/svg" width="127.063" height="18" viewBox="0 0 127.063 18"><g id="Group_13447" data-name="Group 13447" transform="translate(-1099.468 -966.5)"><g id="layer1" transform="translate(-509.743 -1743.835)" opacity="0.9"><path id="path2540" d="M1613.837,2710.336c-3.084,0-4.064.027-4.064.027-.471,0-.562.123-.562.562v16.844c0,.459.1.562.562.562h3.529c.476,0,.562-.125.562-.562v-13.208s5.821,9.126,7.781,12.192c.993,1.553,1.159,1.575,4.011,1.577h4.786c.466,0,.562-.1.562-.562v-16.845c0-.444-.078-.562-.562-.562h-3.53c-.468,0-.561.118-.561.562v13.4s-7.078-11.01-7.995-12.435c-1.066-1.643-1.439-1.549-4.519-1.549Zm105.271,0c-3.077,0-4.064.027-4.064.027-.47,0-.562.123-.562.562v16.844c0,.459.107.562.562.562h3.529c.477,0,.562-.125.562-.562v-13.208s5.82,9.126,7.781,12.192c.992,1.553,1.178,1.575,4.037,1.577h4.759c.468,0,.562-.1.562-.562v-16.845c0-.444-.078-.562-.562-.562h-3.529c-.468,0-.562.118-.562.562v13.4l-2.92-4.545c-1.945-3.026-4.54-7.065-5.075-7.889C1722.565,2710.243,1722.194,2710.336,1719.108,2710.336Zm-83.345.027c-.341,0-.428.161-.428.455v16.952c0,.469.09.562.562.562h4.091c.458,0,.562-.123.562-.562v-16.926c0-.332-.118-.481-.482-.481Zm14.84,0c-3.323,0-5.187,1.208-5.7,3.717a9.4,9.4,0,0,0-.134,1.738,13.1,13.1,0,0,0,.08,1.658c.2,1.438,1.094,3.124,4.92,3.5,3.041.3,7.408.675,8.877.8a.857.857,0,0,1,.829.829,3.416,3.416,0,0,1,.027.481c0,.191,0,.39-.027.669-.034.4-.227.588-.749.588h-13.316c-.466,0-.56.106-.562.562v2.834c0,.462.114.562.562.562h13.156c3.26,0,5.391-.537,5.963-3.369a10.51,10.51,0,0,0,.134-1.925,13.392,13.392,0,0,0-.107-1.9c-.588-2.968-2.81-3.536-5.989-3.851-1.7-.167-6.343-.61-7.861-.748a.749.749,0,0,1-.748-.749,3.126,3.126,0,0,1-.027-.4,3.014,3.014,0,0,1,.027-.375c.049-.508.311-.722.855-.722h12.567c.458,0,.562-.067.562-.535v-2.86c0-.431-.123-.508-.562-.508Zm23.1,0c-3.324,0-5.188,1.208-5.7,3.717a9.322,9.322,0,0,0-.134,1.738,13.212,13.212,0,0,0,.08,1.658c.2,1.438,1.067,3.124,4.893,3.5,3.039.3,7.434.675,8.9.8a.86.86,0,0,1,.829.829,3.615,3.615,0,0,1,.027.481c0,.191,0,.39-.027.669-.036.4-.227.588-.749.588h-13.316c-.468,0-.56.106-.562.562v2.834c0,.462.086.562.535.562h13.183c3.26,0,5.387-.537,5.963-3.369a10.741,10.741,0,0,0,.134-1.925,12.876,12.876,0,0,0-.107-1.9c-.588-2.968-2.813-3.536-5.989-3.851-1.7-.167-6.339-.61-7.861-.748a.776.776,0,0,1-.776-.749,3.6,3.6,0,0,1,0-.4c0-.165-.007-.25,0-.375.053-.508.328-.722.883-.722h12.567c.454,0,.562-.067.562-.535v-2.86c0-.431-.126-.508-.562-.508Zm26.953,0c-.869,0-1.077.015-1.738.027-2.729.049-2.3-.149-3.235,1.819,0,0-4.7,10.687-6.738,15.134,0,0-.081.187-.081.187-.379.755-.123.8.482.8l4.277-.027a.535.535,0,0,0,.508-.294s.589-1.407,1.391-3.289h10.321c.773,1.835,1.362,3.2,1.39,3.262a.547.547,0,0,0,.508.348h4.385c.652,0,.784.081.536-.508-.78-1.851-5.849-12.955-6.578-14.652-1.314-3.034-.818-2.68-3.718-2.781-.266-.01-.846-.027-1.711-.027Zm.08,3.957c.209,0,.433.018.508.027a.482.482,0,0,1,.428.294c.329.89,1.451,3.578,2.594,6.311H1697.1c1.34-3.183,2.638-6.254,2.674-6.337a.463.463,0,0,1,.428-.268C1700.3,2714.338,1700.515,2714.32,1700.738,2714.32Z" fill="#b4b4b6"></path></g></g></svg>