<svg xmlns="http://www.w3.org/2000/svg" width="128.71" height="47.307" viewBox="0 0 128.71 47.307"><g id="Group_12458" data-name="Group 12458" transform="translate(-1090.702 -1245)" opacity="0.9"><g id="Group_12457" data-name="Group 12457" transform="translate(1139.627 1245)" opacity="0.69"><path id="Layer" d="M884.423,117.383a13.186,13.186,0,0,0-4.123,2.537,7.673,7.673,0,0,0-.5-2.228,10.154,10.154,0,0,1,3.148-3.164,15.432,15.432,0,0,1,5.424-2.228,13.713,13.713,0,0,1,1.229,4.092A12.712,12.712,0,0,0,884.423,117.383Z" transform="translate(-859.041 -103.451)" fill="#bfbfc1"></path><path id="Layer-2" data-name="Layer" d="M857.688,44.765a14.238,14.238,0,0,0-3.259,4.7,5.523,5.523,0,0,0-1.729-1.855,21.861,21.861,0,0,1,2.339-4.829A17.423,17.423,0,0,1,858.8,39a15.653,15.653,0,0,1,3.021,3.037,17.4,17.4,0,0,0-4.131,2.728Z" transform="translate(-834.09 -35.963)" fill="#bfbfc1"></path><path id="Layer-3" data-name="Layer" d="M818.407,6.584a21.952,21.952,0,0,0-1.356,5.448,7.046,7.046,0,0,0-2.466-.745,25.894,25.894,0,0,1,.563-5.448A36.743,36.743,0,0,1,816.56.7a13.136,13.136,0,0,1,4.068,1.11S819.145,4.657,818.407,6.584Z" transform="translate(-798.996 -0.7)" fill="#bfbfc1"></path><path id="Layer-4" data-name="Layer" d="M618,116.392a13.706,13.706,0,0,1,1.229-4.092,15.432,15.432,0,0,1,5.424,2.228,10.059,10.059,0,0,1,3.148,3.164,7.936,7.936,0,0,0-.5,2.228,13.188,13.188,0,0,0-4.123-2.537A12.712,12.712,0,0,0,618,116.392Z" transform="translate(-618 -103.451)" fill="#bfbfc1"></path><path id="Layer-5" data-name="Layer" d="M653.7,42.037A15.433,15.433,0,0,1,656.721,39a17.429,17.429,0,0,1,3.759,3.782,21.87,21.87,0,0,1,2.339,4.829,5.522,5.522,0,0,0-1.729,1.855,14.237,14.237,0,0,0-3.259-4.7A17.405,17.405,0,0,0,653.7,42.037Z" transform="translate(-650.869 -35.963)" fill="#bfbfc1"></path><path id="Layer-6" data-name="Layer" d="M730.6,1.81A13.136,13.136,0,0,1,734.668.7a36.772,36.772,0,0,1,1.411,5.138,25.889,25.889,0,0,1,.563,5.448,7.046,7.046,0,0,0-2.466.745,21.958,21.958,0,0,0-1.356-5.448c-.737-1.927-2.22-4.774-2.22-4.774Z" transform="translate(-721.671 -0.7)" fill="#bfbfc1"></path></g><g id="Layer-7" data-name="Layer" transform="translate(1090.702 1278.994)"><path id="Layer-8" data-name="Layer" d="M4.085,442.059h1.6v1.3H1v-1.3H2.6V431.537H1V430.3H6.36c2.958,0,4.988,1.3,4.988,4.084s-2.03,4.084-4.988,4.084H4.085Zm0-10.459v5.566H6.36c2.466,0,3.576-.991,3.576-2.783S8.89,431.6,6.36,431.6Z" transform="translate(-1 -430.229)" fill="#bfbfc2" fill-rule="evenodd"></path><path id="Layer-9" data-name="Layer" d="M153.391,480.838a4.026,4.026,0,0,1-4.187,2.847c-2.775,0-4.5-1.729-4.5-4.892,0-2.966,1.792-4.892,4.5-4.892,2.958,0,4.805,2.292,4.433,5.638h-7.517a3.024,3.024,0,0,0,3.085,2.91,2.771,2.771,0,0,0,2.712-1.61Zm-1.11-2.537a3.081,3.081,0,1,0-6.161,0Z" transform="translate(-133.305 -470.371)" fill="#bfbfc2" fill-rule="evenodd"></path><path id="b" d="M284.394,482.895h1.483v1.237H281.5v-1.237h1.483v-6.938H281.5v-1.174h2.775v1.3a3.042,3.042,0,0,1,3.759-1.3v1.356c-2.22-.619-3.64.563-3.64,2.728Z" transform="translate(-259.258 -471.001)" fill="#bfbfc2"></path><path id="Layer-10" data-name="Layer" d="M389.01,483h1.475v1.237h-4.314V483h1.483v-3.965c0-2.165-1.292-3.1-2.775-3.1-1.419,0-2.648.991-2.648,3.227V483h1.475v1.237H379.4V483h1.475v-6.938H379.4V474.89h2.767v1.3a3.578,3.578,0,0,1,3.021-1.491c2.03,0,3.822,1.182,3.822,4.337Z" transform="translate(-349.395 -471.108)" fill="#bfbfc2"></path><path id="Layer-11" data-name="Layer" d="M540.2,474c2.894,0,4.559,2.1,4.559,4.885,0,2.855-1.665,4.892-4.559,4.892-2.831,0-4.5-2.038-4.5-4.892C535.7,476.1,537.365,474,540.2,474Zm0,8.54c1.848,0,3.14-1.3,3.14-3.656s-1.293-3.584-3.14-3.584c-1.784,0-3.14,1.237-3.14,3.584S538.412,482.54,540.2,482.54Z" transform="translate(-493.301 -470.463)" fill="#bfbfc2" fill-rule="evenodd"></path><path id="a" d="M679.729,441.294h1.483v1.237h-2.775v-1.364a3.881,3.881,0,0,1-3.259,1.546c-2.656,0-4.377-2.1-4.377-4.892s1.721-4.892,4.377-4.892a3.787,3.787,0,0,1,3.2,1.554v-3.846H676.9V429.4h2.831Zm-7.573-3.465c0,2.411,1.412,3.655,3.14,3.655s3.14-1.245,3.14-3.655c0-2.355-1.411-3.592-3.14-3.592S672.156,435.474,672.156,437.829Z" transform="translate(-617.689 -429.4)" fill="#bfbfc2" fill-rule="evenodd"></path><path id="Layer-12" data-name="Layer" d="M880.6,429.5h6.09c2.466,0,4.258,1.364,4.258,3.774a3.6,3.6,0,0,1-3.2,3.719l2.093,4.329h1.729v1.3h-2.712l-2.712-5.567h-2.466v4.266h1.411v1.3H880.6v-1.3h1.6V430.8h-1.6Zm3.077,1.364v4.829h3.013c1.975,0,2.776-.928,2.776-2.418,0-1.419-.8-2.41-2.776-2.41Z" transform="translate(-810.853 -429.492)" fill="#bfbfc2" fill-rule="evenodd"></path><path id="Layer-13" data-name="Layer" d="M1041.156,429.4h1.546v1.8h-1.546Zm1.546,3.774h-2.9v1.174h1.483v6.938H1039.8v1.237h4.377v-1.237H1042.7Z" transform="translate(-957.429 -429.4)" fill="#bfbfc2" fill-rule="evenodd"></path><path id="Layer-14" data-name="Layer" d="M1120.308,480.093a4.293,4.293,0,0,1-4.5,3.592c-2.831,0-4.5-2.038-4.5-4.893,0-2.783,1.673-4.892,4.5-4.892a3.823,3.823,0,0,1,3.148,1.554v-1.3h1.285v3.4h-1.475a3.005,3.005,0,0,0-2.958-2.355c-1.792,0-3.148,1.245-3.148,3.592s1.356,3.656,3.148,3.656a3.115,3.115,0,0,0,3.077-2.355Z" transform="translate(-1023.26 -470.371)" fill="#bfbfc2"></path><path id="Layer-15" data-name="Layer" d="M1253.381,474.154h2.839v1.174h-1.483v6.938h1.483V483.5h-2.839v-1.364a3.7,3.7,0,0,1-3.2,1.546c-2.648,0-4.377-2.1-4.377-4.893s1.729-4.892,4.377-4.892a3.705,3.705,0,0,1,3.2,1.554Zm-6.161,4.639c0,2.419,1.356,3.656,3.084,3.656s3.132-1.237,3.132-3.656c0-2.347-1.411-3.592-3.132-3.592S1247.219,476.445,1247.219,478.792Z" transform="translate(-1147.094 -470.371)" fill="#bfbfc2" fill-rule="evenodd"></path><path id="a-2" data-name="a" d="M1501.837,441.294h1.475v1.237h-2.775v-1.364a3.859,3.859,0,0,1-3.259,1.546c-2.648,0-4.377-2.1-4.377-4.892s1.729-4.892,4.377-4.892a3.788,3.788,0,0,1,3.2,1.554v-3.846h-1.475V429.4h2.831Zm-7.581-3.465c0,2.411,1.42,3.655,3.148,3.655s3.132-1.245,3.132-3.655c0-2.355-1.411-3.592-3.132-3.592S1494.256,435.474,1494.256,437.829Z" transform="translate(-1374.601 -429.4)" fill="#bfbfc2" fill-rule="evenodd"></path><path id="b-2" data-name="b" d="M1404.894,482.895h1.475v1.237H1402v-1.237h1.475v-6.938H1402v-1.174h2.767v1.3a3.041,3.041,0,0,1,3.758-1.3v1.356c-2.212-.619-3.632.563-3.632,2.728Z" transform="translate(-1290.909 -471.001)" fill="#bfbfc2"></path></g><g id="Group_12456" data-name="Group 12456" transform="translate(1139.436 1260.386)"><path id="Layer-16" data-name="Layer" d="M842.334,257.8a12.631,12.631,0,0,0-6.034-1.118,6.221,6.221,0,0,0,2.712-1.982,18.973,18.973,0,0,1,4.678.063,11.978,11.978,0,0,1,4.5,1.737,14.239,14.239,0,0,1-2.4,3.592,13.4,13.4,0,0,0-3.457-2.292Z" transform="translate(-818.8 -249.836)" fill="#bfbfc2"></path><path id="Layer-17" data-name="Layer" d="M881.914,198.175a13.879,13.879,0,0,0-5.115.682,5.828,5.828,0,0,0,.682-2.292,16.156,16.156,0,0,1,4.678-1.673,11.318,11.318,0,0,1,4.869.182,16.382,16.382,0,0,1-.674,4.211A12.313,12.313,0,0,0,881.914,198.175Z" transform="translate(-856.088 -194.736)" fill="#bfbfc2"></path><path id="Layer-18" data-name="Layer" d="M637.5,260.094a14.234,14.234,0,0,1-2.4-3.592,11.978,11.978,0,0,1,4.5-1.737,18.973,18.973,0,0,1,4.678-.063,6.221,6.221,0,0,0,2.712,1.982,12.632,12.632,0,0,0-6.034,1.118A13.4,13.4,0,0,0,637.5,260.094Z" transform="translate(-633.554 -249.836)" fill="#bfbfc2"></path><path id="Layer-19" data-name="Layer" d="M616.282,199.285a16.057,16.057,0,0,1-.682-4.211,11.317,11.317,0,0,1,4.869-.182,16.156,16.156,0,0,1,4.678,1.673,5.832,5.832,0,0,0,.682,2.292,13.878,13.878,0,0,0-5.114-.682A12.24,12.24,0,0,0,616.282,199.285Z" transform="translate(-615.6 -194.736)" fill="#bfbfc2"></path><path id="Layer-20" data-name="Layer" d="M688.559,291.2a14.777,14.777,0,0,1-3.759-2.355,13.107,13.107,0,0,1,20.022,0,15.759,15.759,0,0,1-3.75,2.355,7.365,7.365,0,0,0-6.3-3.782A7.29,7.29,0,0,0,688.559,291.2Z" transform="translate(-679.313 -277.106)" fill="#bfbfc2"></path></g></g></svg>